ply
format ascii 1.0
comment Created in Blender version 4.0.2
element vertex 48
property float x
property float y
property float z
element face 24
property list uchar uint vertex_indices
end_header
-4.9999995 5.0000005 0
4.9999995 -5.0000005 0
-5.0000005 -4.9999995 0
5.0000005 4.9999995 0
-25 -4.999998 0
-15 5.000001 0
-14.893934 -5.1060653 0
-25 5.000002 0
-15 5.000001 20
-25 -4.999998 20
-14.893934 -5.1060653 20
-25 5.000002 20
-25 5.000002 0
-15 5.000001 20
-15 5.000001 0
-25 5.000002 20
-15 5.000001 20
-14.893934 -5.1060653 0
-15 5.000001 0
-14.893934 -5.1060653 20
-25 -4.999998 20
-14.893934 -5.1060653 0
-14.893934 -5.1060653 20
-25 -4.999998 0
-25 -4.999998 20
-25 5.000002 0
-25 -4.999998 0
-25 5.000002 20
5.0000005 4.9999995 20
-5.0000005 -4.9999995 20
4.9999995 -5.0000005 20
-4.9999995 5.0000005 20
-4.9999995 5.0000005 0
5.0000005 4.9999995 20
5.0000005 4.9999995 0
-4.9999995 5.0000005 20
5.0000005 4.9999995 20
4.9999995 -5.0000005 0
5.0000005 4.9999995 0
4.9999995 -5.0000005 20
-5.0000005 -4.9999995 20
4.9999995 -5.0000005 0
4.9999995 -5.0000005 20
-5.0000005 -4.9999995 0
-5.0000005 -4.9999995 20
-4.9999995 5.0000005 0
-5.0000005 -4.9999995 0
-4.9999995 5.0000005 20
3 0 1 2
3 1 0 3
3 4 5 6
3 5 4 7
3 8 9 10
3 9 8 11
3 12 13 14
3 13 12 15
3 16 17 18
3 17 16 19
3 20 21 22
3 21 20 23
3 24 25 26
3 25 24 27
3 28 29 30
3 29 28 31
3 32 33 34
3 33 32 35
3 36 37 38
3 37 36 39
3 40 41 42
3 41 40 43
3 44 45 46
3 45 44 47
