<?xml version="1.0" encoding="UTF-8" standalone="no"?>
<!-- Created with Inkscape (http://www.inkscape.org/) -->

<svg
   width="256"
   height="256"
   viewBox="0 0 14.080256 14.080256"
   version="1.1"
   id="svg5"
   inkscape:version="1.1.2 (0a00cf5339, 2022-02-04)"
   sodipodi:docname="logo.svg"
   inkscape:label="simple_unmerged"
   inkscape:export-filename="/home/jeertmans/repositories/DiffeRT/DiffeRT/static/logo.png"
   inkscape:export-xdpi="211.397"
   inkscape:export-ydpi="211.397"
   xmlns:inkscape="http://www.inkscape.org/namespaces/inkscape"
   xmlns:sodipodi="http://sodipodi.sourceforge.net/DTD/sodipodi-0.dtd"
   xmlns="http://www.w3.org/2000/svg"
   xmlns:svg="http://www.w3.org/2000/svg">
  <sodipodi:namedview
     id="namedview7"
     pagecolor="#ffffff"
     bordercolor="#666666"
     borderopacity="1.0"
     inkscape:pageshadow="2"
     inkscape:pageopacity="0.0"
     inkscape:pagecheckerboard="0"
     inkscape:document-units="px"
     showgrid="false"
     inkscape:snap-global="false"
     inkscape:zoom="2.5620932"
     inkscape:cx="138.36343"
     inkscape:cy="117.67722"
     inkscape:window-width="1920"
     inkscape:window-height="1016"
     inkscape:window-x="0"
     inkscape:window-y="27"
     inkscape:window-maximized="1"
     inkscape:current-layer="svg5"
     fit-margin-top="0"
     fit-margin-left="0"
     fit-margin-right="0"
     fit-margin-bottom="0"
     units="px"
     scale-x="1e-05"
     viewbox-width="22.6025" />
  <defs
     id="defs2">
    <inkscape:path-effect
       effect="offset"
       id="path-effect64715"
       is_visible="true"
       lpeversion="1"
       linejoin_type="miter"
       unit="px"
       offset="-3"
       miter_limit="4"
       attempt_force_join="false"
       update_on_knot_move="true" />
    <inkscape:path-effect
       effect="offset"
       id="path-effect64675"
       is_visible="true"
       lpeversion="1"
       linejoin_type="miter"
       unit="px"
       offset="-3"
       miter_limit="4"
       attempt_force_join="false"
       update_on_knot_move="true" />
    <inkscape:path-effect
       effect="offset"
       id="path-effect64669"
       is_visible="true"
       lpeversion="1"
       linejoin_type="miter"
       unit="mm"
       offset="-0.083582132"
       miter_limit="4"
       attempt_force_join="false"
       update_on_knot_move="true" />
  </defs>
  <g
     aria-label="DRT"
     id="g59475"
     style="font-size:10.5833px;line-height:1.25;font-family:Cousine;-inkscape-font-specification:Cousine;display:inline;fill:#000000;stroke-width:0.264583"
     inkscape:label="g59475"
     transform="matrix(1.0200061,0,0,1.0200061,-77.013401,-74.704251)">
    <path
       id="path59471"
       style="display:inline;fill:#b4deff;fill-opacity:1;stroke-width:0.473991"
       d="m 83.541307,73.89678 c 0.545674,0.3613 0.9671,0.867249 1.253486,1.444196 h 0.782271 v 10.48892 c 0.124063,0.185146 0.248102,0.370311 0.37216,0.555462 H 87.33602 V 75.340976 h 1.970953 V 73.89678 Z" />
    <path
       id="path59473"
       style="display:inline;fill:#b4deff;fill-opacity:1;stroke-width:0.473991"
       d="m 75.502883,73.89678 v 1.455302 c 1.267023,0.06405 2.209011,0.433039 2.823589,1.10907 0.670376,0.731322 1.00901,1.896859 1.017414,3.494761 v 0.136088 c -0.0098,1.603411 -0.326856,2.809876 -0.952615,3.617895 -0.63112,0.814939 -1.594177,1.224487 -2.888388,1.230341 v 1.445121 h 0.129608 c 1.765122,0 3.119834,-0.54929 4.064111,-1.647862 0.406813,-0.472854 0.725478,-1.031852 0.95817,-1.676561 l 2.116298,3.324423 h 2.036682 L 81.10469,80.858536 c 0.968967,-0.160465 1.740441,-0.555461 2.314417,-1.18498 0.580143,-0.629518 0.870216,-1.404077 0.870216,-2.323669 0,-1.110914 -0.376477,-1.962625 -1.129433,-2.555115 -0.75295,-0.598657 -1.84845,-0.897992 -3.286465,-0.897992 z m 4.005791,1.416421 h 0.188852 c 1.876212,0 2.814327,0.68816 2.814327,2.064457 0,0.734441 -0.237612,1.29916 -0.712836,1.694151 -0.194294,0.163613 -0.425379,0.29298 -0.69062,0.388821 -0.08405,-1.772005 -0.578669,-3.117947 -1.485856,-4.036335 -0.03702,-0.03792 -0.07542,-0.07457 -0.113867,-0.111094 z" />
    <path
       id="path64671"
       style="display:inline;fill:#0086f0;fill-opacity:1;stroke-width:0.473991"
       d="m 75.666016,74.060547 c 0,0.378906 0,0.757813 0,1.136719 0.389552,0.02802 0.777961,0.08671 1.154302,0.192582 0.327978,0.09232 0.646801,0.221521 0.939194,0.397316 0.214553,0.128684 0.41391,0.282879 0.591208,0.459455 0.118717,0.118167 0.227325,0.246433 0.324718,0.382702 0.171549,0.238938 0.308605,0.501433 0.417438,0.774378 0.0636,0.159119 0.117356,0.322057 0.16368,0.487001 0.02986,0.104477 0.05627,0.209944 0.07843,0.316327 0.02945,0.138666 0.05551,0.278072 0.07666,0.418254 0.06322,0.416509 0.09065,0.837848 0.09557,1.258895 8.9e-4,0.06417 5.06e-4,0.128344 5.89e-4,0.192516 -2.89e-4,0.111325 -0.0024,0.222645 -0.0057,0.33392 -0.0092,0.299473 -0.03093,0.598635 -0.06754,0.896027 -0.05114,0.412628 -0.132421,0.82244 -0.259264,1.218763 -0.06211,0.193615 -0.134666,0.384053 -0.221289,0.568081 -0.01536,0.03729 -0.03478,0.07349 -0.05278,0.109855 -0.07104,0.13959 -0.148583,0.275997 -0.235552,0.406322 -0.07735,0.116156 -0.161243,0.228074 -0.25326,0.333046 -0.03171,0.03681 -0.06567,0.07158 -0.09812,0.107711 -0.05621,0.06111 -0.116231,0.118621 -0.177703,0.174391 -0.220464,0.199062 -0.470613,0.364723 -0.738531,0.492759 -0.311565,0.14934 -0.645718,0.248377 -0.985585,0.307994 -0.246531,0.04331 -0.496386,0.06634 -0.746493,0.07405 0,0.371745 0,0.74349 0,1.115235 0.474452,-0.0022 0.949882,-0.04428 1.414087,-0.144442 0.404135,-0.08713 0.799518,-0.219323 1.169366,-0.404869 0.121034,-0.06066 0.239268,-0.126931 0.354047,-0.198736 0.04224,-0.02859 0.08577,-0.05536 0.127621,-0.08459 0.07927,-0.05452 0.157451,-0.110668 0.233821,-0.16919 0.03937,-0.0295 0.07625,-0.06196 0.113754,-0.09375 0.06276,-0.05249 0.125324,-0.105332 0.183976,-0.162439 0.06342,-0.06132 0.124792,-0.12471 0.18555,-0.188648 0.07805,-0.08243 0.152549,-0.168212 0.22284,-0.257353 0.130549,-0.164056 0.252885,-0.334944 0.360538,-0.514967 0.123785,-0.205912 0.233627,-0.420161 0.32906,-0.640641 0.05425,-0.124793 0.103775,-0.251604 0.149563,-0.379736 0.03435,-0.09534 0.0687,-0.190687 0.103042,-0.286031 0.749349,1.177083 1.498698,2.354167 2.248047,3.53125 0.546224,0 1.092448,0 1.638672,0 -1.224609,-1.827474 -2.449219,-3.654948 -3.673828,-5.482422 0.08672,-0.01414 0.17346,-0.0282 0.260176,-0.04238 0.358384,-0.05992 0.711616,-0.157138 1.044812,-0.303088 0.301945,-0.132064 0.586477,-0.304936 0.839456,-0.516418 0.106567,-0.08907 0.207655,-0.184711 0.302573,-0.286106 0.112895,-0.120247 0.216969,-0.248834 0.309896,-0.385131 0.03157,-0.04618 0.06167,-0.0934 0.0914,-0.14067 0.136553,-0.225339 0.24361,-0.468662 0.315827,-0.722111 0.06772,-0.233918 0.108235,-0.475379 0.124796,-0.718241 0.01108,-0.154665 0.01268,-0.309965 0.0056,-0.464855 -0.01208,-0.268171 -0.04799,-0.535937 -0.118071,-0.795344 -0.06634,-0.246785 -0.164052,-0.485603 -0.294965,-0.705273 -0.08358,-0.14058 -0.181337,-0.272565 -0.289711,-0.394989 -0.0016,-0.0068 -0.0096,-0.01109 -0.01344,-0.01696 -0.05478,-0.06019 -0.11244,-0.117712 -0.171439,-0.173749 -0.015,-0.01412 -0.03017,-0.02804 -0.04559,-0.04171 -0.0069,-0.0017 -0.01139,-0.0098 -0.01747,-0.0137 -0.05777,-0.05134 -0.117726,-0.100206 -0.179779,-0.146281 -0.167647,-0.12531 -0.348213,-0.232948 -0.53664,-0.323905 -0.05424,-0.02622 -0.109128,-0.0511 -0.164554,-0.07471 -0.05048,-0.01956 -0.100694,-0.04146 -0.151702,-0.06033 -0.197128,-0.0752 -0.399886,-0.135227 -0.605503,-0.182319 -0.12374,-0.0285 -0.248818,-0.05075 -0.373991,-0.07189 -0.235431,-0.0389 -0.47302,-0.0639 -0.711084,-0.07948 -0.200942,-0.01307 -0.402333,-0.01854 -0.603687,-0.01809 -1.392359,0 -2.784719,0 -4.177079,0 z m 3.427734,1.087891 c 0.208735,1.6e-5 0.417471,-3.2e-5 0.626206,2.4e-5 0.152253,2e-4 0.304549,0.0044 0.456426,0.01538 0.28634,0.02039 0.572012,0.06061 0.849947,0.133523 0.226935,0.05975 0.449015,0.141658 0.654588,0.255577 0.181773,0.100623 0.349772,0.227387 0.491417,0.379717 0.13026,0.139673 0.236892,0.301107 0.315308,0.475207 0.09098,0.201091 0.144783,0.417684 0.17006,0.636554 0.01906,0.163961 0.0216,0.329513 0.01439,0.494304 -0.01182,0.256231 -0.05358,0.512327 -0.138362,0.754918 -0.07128,0.204847 -0.174037,0.399027 -0.306319,0.571072 -0.09839,0.128507 -0.212813,0.244402 -0.337971,0.346893 -0.185879,0.153726 -0.398263,0.273545 -0.621514,0.36386 -0.06359,0.02595 -0.128463,0.04851 -0.192996,0.07195 -0.0406,0.01466 -0.08121,0.02933 -0.121809,0.04399 -0.0034,-0.07762 -0.0068,-0.155252 -0.01026,-0.232873 -0.01308,-0.267689 -0.03724,-0.534834 -0.07195,-0.800581 -0.04839,-0.367928 -0.120153,-0.733195 -0.223986,-1.089639 -0.01391,-0.04907 -0.02984,-0.09775 -0.044,-0.146603 -0.09097,-0.286683 -0.203407,-0.566905 -0.34208,-0.833942 -0.111435,-0.214881 -0.238939,-0.421611 -0.383976,-0.615488 -0.02525,-0.03387 -0.05149,-0.06722 -0.07607,-0.100912 -0.102006,-0.128535 -0.211986,-0.250736 -0.328772,-0.365995 -0.06175,-0.05925 -0.124283,-0.117678 -0.186542,-0.176393 -0.06392,-0.06018 -0.127832,-0.120361 -0.191748,-0.180542 z"
       inkscape:path-effect="#path-effect64715"
       inkscape:original-d="m 75.502883,73.89678 v 1.455302 c 1.267023,0.06405 2.209011,0.433039 2.823589,1.10907 0.670376,0.731322 1.00901,1.896859 1.017414,3.494761 v 0.136088 c -0.0098,1.603411 -0.326856,2.809876 -0.952615,3.617895 -0.63112,0.814939 -1.594177,1.224487 -2.888388,1.230341 v 1.445121 h 0.129608 c 1.765122,0 3.119834,-0.54929 4.064111,-1.647862 0.406813,-0.472854 0.725478,-1.031852 0.95817,-1.676561 l 2.116298,3.324423 h 2.036682 L 81.10469,80.858536 c 0.968967,-0.160465 1.740441,-0.555461 2.314417,-1.18498 0.580143,-0.629518 0.870216,-1.404077 0.870216,-2.323669 0,-1.110914 -0.376477,-1.962625 -1.129433,-2.555115 -0.75295,-0.598657 -1.84845,-0.897992 -3.286465,-0.897992 z m 4.005791,1.416421 h 0.188852 c 1.876212,0 2.814327,0.68816 2.814327,2.064457 0,0.734441 -0.237612,1.29916 -0.712836,1.694151 -0.194294,0.163613 -0.425379,0.29298 -0.69062,0.388821 -0.08405,-1.772005 -0.578669,-3.117947 -1.485856,-4.036335 -0.03702,-0.03792 -0.07542,-0.07457 -0.113867,-0.111094 z" />
    <path
       id="path64673"
       style="display:inline;fill:#0086f0;fill-opacity:1;stroke-width:0.473991"
       d="m 84.025391,74.060547 c 0.275577,0.24281 0.513165,0.527683 0.708481,0.838471 0.0571,0.0908 0.110655,0.183825 0.160659,0.278716 0.281901,0 0.563802,0 0.845703,0 0,3.533854 0,7.067709 0,10.601563 0.09881,0.147236 0.198002,0.294213 0.296875,0.441406 0.378255,0 0.756511,0 1.134766,0 0,-3.68099 0,-7.361979 0,-11.042969 0.656901,0 1.313802,0 1.970703,0 0,-0.372396 0,-0.744791 0,-1.117187 -1.705729,0 -3.411458,0 -5.117187,0 z"
       inkscape:path-effect="#path-effect64675"
       inkscape:original-d="m 83.541307,73.89678 c 0.545674,0.3613 0.9671,0.867249 1.253486,1.444196 h 0.782271 v 10.48892 c 0.124063,0.185146 0.248102,0.370311 0.37216,0.555462 H 87.33602 V 75.340976 h 1.970953 V 73.89678 Z"
       inkscape:export-filename="/home/jeertmans/repositories/DiffeRT/DiffeRT/static/logo_250px.png"
       inkscape:export-xdpi="95.625572"
       inkscape:export-ydpi="95.625572" />
  </g>
</svg>
