<?xml version="1.0" encoding="UTF-8" standalone="no"?>
<!-- Created with Inkscape (http://www.inkscape.org/) -->

<svg
   width="250.9789"
   height="227.06093"
   viewBox="0 0 13.80409 12.488578"
   version="1.1"
   id="svg5"
   inkscape:version="1.1.2 (0a00cf5339, 2022-02-04)"
   sodipodi:docname="logo.svg"
   inkscape:label="simple_unmerged"
   inkscape:export-filename="/home/jeertmans/repositories/DiffeRT/DiffeRT/static/logo_250px.png"
   inkscape:export-xdpi="95.625572"
   inkscape:export-ydpi="95.625572"
   xmlns:inkscape="http://www.inkscape.org/namespaces/inkscape"
   xmlns:sodipodi="http://sodipodi.sourceforge.net/DTD/sodipodi-0.dtd"
   xmlns="http://www.w3.org/2000/svg"
   xmlns:svg="http://www.w3.org/2000/svg">
  <sodipodi:namedview
     id="namedview7"
     pagecolor="#ffffff"
     bordercolor="#666666"
     borderopacity="1.0"
     inkscape:pageshadow="2"
     inkscape:pageopacity="0.0"
     inkscape:pagecheckerboard="0"
     inkscape:document-units="px"
     showgrid="false"
     inkscape:snap-global="false"
     inkscape:zoom="2.5620932"
     inkscape:cx="138.36343"
     inkscape:cy="117.48207"
     inkscape:window-width="1920"
     inkscape:window-height="1043"
     inkscape:window-x="1920"
     inkscape:window-y="0"
     inkscape:window-maximized="1"
     inkscape:current-layer="svg5"
     fit-margin-top="0"
     fit-margin-left="0"
     fit-margin-right="0"
     fit-margin-bottom="0"
     units="px"
     scale-x="1e-05"
     viewbox-width="22.6025" />
  <defs
     id="defs2">
    <inkscape:path-effect
       effect="offset"
       id="path-effect64715"
       is_visible="true"
       lpeversion="1"
       linejoin_type="miter"
       unit="mm"
       offset="-0.17914655"
       miter_limit="4"
       attempt_force_join="false"
       update_on_knot_move="true" />
    <inkscape:path-effect
       effect="offset"
       id="path-effect64675"
       is_visible="true"
       lpeversion="1"
       linejoin_type="miter"
       unit="mm"
       offset="-0.17914655"
       miter_limit="4"
       attempt_force_join="false"
       update_on_knot_move="true" />
    <inkscape:path-effect
       effect="offset"
       id="path-effect64669"
       is_visible="true"
       lpeversion="1"
       linejoin_type="miter"
       unit="mm"
       offset="-0.083582132"
       miter_limit="4"
       attempt_force_join="false"
       update_on_knot_move="true" />
  </defs>
  <g
     aria-label="DRT"
     id="g59475"
     style="font-size:10.5833px;line-height:1.25;font-family:Cousine;-inkscape-font-specification:Cousine;display:inline;fill:#000000;stroke-width:0.264583"
     inkscape:label="g59475"
     transform="translate(-75.502883,-73.89678)">
    <path
       id="path59471"
       style="display:inline;fill:#1b3592;fill-opacity:1;stroke-width:0.473991"
       d="m 83.541307,73.89678 c 0.545674,0.3613 0.9671,0.867249 1.253486,1.444196 h 0.782271 v 10.48892 c 0.124063,0.185146 0.248102,0.370311 0.37216,0.555462 H 87.33602 V 75.340976 h 1.970953 V 73.89678 Z" />
    <path
       id="path59473"
       style="display:inline;fill:#4db0ff;fill-opacity:1;stroke-width:0.473991"
       d="m 75.502883,73.89678 v 1.455302 c 1.267023,0.06405 2.209011,0.433039 2.823589,1.10907 0.670376,0.731322 1.00901,1.896859 1.017414,3.494761 v 0.136088 c -0.0098,1.603411 -0.326856,2.809876 -0.952615,3.617895 -0.63112,0.814939 -1.594177,1.224487 -2.888388,1.230341 v 1.445121 h 0.129608 c 1.765122,0 3.119834,-0.54929 4.064111,-1.647862 0.406813,-0.472854 0.725478,-1.031852 0.95817,-1.676561 l 2.116298,3.324423 h 2.036682 L 81.10469,80.858536 c 0.968967,-0.160465 1.740441,-0.555461 2.314417,-1.18498 0.580143,-0.629518 0.870216,-1.404077 0.870216,-2.323669 0,-1.110914 -0.376477,-1.962625 -1.129433,-2.555115 -0.75295,-0.598657 -1.84845,-0.897992 -3.286465,-0.897992 z m 4.005791,1.416421 h 0.188852 c 1.876212,0 2.814327,0.68816 2.814327,2.064457 0,0.734441 -0.237612,1.29916 -0.712836,1.694151 -0.194294,0.163613 -0.425379,0.29298 -0.69062,0.388821 -0.08405,-1.772005 -0.578669,-3.117947 -1.485856,-4.036335 -0.03702,-0.03792 -0.07542,-0.07457 -0.113867,-0.111094 z" />
    <path
       id="path64671"
       style="display:inline;fill:#0086f0;fill-opacity:1;stroke-width:0.473991"
       d="m 75.539062,73.933594 c 0,0.460937 0,0.921875 0,1.382812 0.376283,0.02094 0.751913,0.06983 1.117723,0.161815 0.296038,0.07454 0.585648,0.177913 0.856887,0.318654 0.03042,0.0175 0.06195,0.03304 0.09244,0.05046 0.123242,0.06838 0.241929,0.14504 0.354212,0.230261 0.02594,0.02139 0.05327,0.04121 0.07964,0.06217 0.02999,0.02341 0.05927,0.04774 0.0876,0.07313 0.06685,0.05943 0.131197,0.121708 0.192663,0.186696 0.120563,0.127555 0.229411,0.266082 0.325501,0.41294 0.182311,0.278114 0.319958,0.58375 0.423795,0.899152 0.120573,0.366769 0.196693,0.746983 0.244556,1.129706 0.01796,0.144847 0.03248,0.290156 0.04131,0.435859 0.01031,0.157563 0.01853,0.315283 0.02234,0.473147 0.0022,0.0851 0.0033,0.170235 0.0031,0.255367 -3.2e-5,0.05682 2.22e-4,0.113633 -7.73e-4,0.170444 -0.003,0.265597 -0.01504,0.531131 -0.03809,0.795762 -0.0356,0.409517 -0.09887,0.817294 -0.202364,1.215369 -0.0416,0.159251 -0.08934,0.316969 -0.144909,0.471919 -0.09129,0.25346 -0.204773,0.499205 -0.342455,0.730867 -0.100625,0.168461 -0.214118,0.329592 -0.343557,0.477229 -0.0062,0.0063 -0.01091,0.01314 -0.01577,0.01991 -0.05248,0.05884 -0.108583,0.114305 -0.164745,0.169594 -0.03224,0.0313 -0.06518,0.06188 -0.0989,0.09158 -0.02685,0.02465 -0.05516,0.04772 -0.08324,0.07097 -0.0622,0.05079 -0.126743,0.09866 -0.192747,0.144366 -0.25047,0.172806 -0.527565,0.305562 -0.816388,0.400528 -0.338743,0.111598 -0.692705,0.172578 -1.047981,0.198103 -0.116442,0.0084 -0.233147,0.01292 -0.349879,0.01416 0,0.457031 0,0.914063 0,1.371094 0.107573,1.3e-5 0.215159,2.38e-4 0.322702,-0.0027 0.350258,-0.0095 0.700178,-0.04251 1.045039,-0.105077 0.387172,-0.07034 0.76821,-0.178591 1.13047,-0.332964 0.191833,-0.08183 0.37742,-0.177852 0.557157,-0.283524 0.14158,-0.08408 0.277648,-0.177337 0.408387,-0.277407 0.181389,-0.138733 0.35096,-0.292657 0.508579,-0.457835 0.08117,-0.08443 0.159965,-0.171289 0.232821,-0.26305 0.05867,-0.07391 0.116781,-0.148294 0.172729,-0.224293 0.02707,-0.03557 0.04981,-0.07288 0.07576,-0.109253 0.08859,-0.128455 0.169657,-0.261962 0.245705,-0.398179 0.02949,-0.0525 0.05838,-0.105346 0.08581,-0.158957 0.01889,-0.04148 0.04103,-0.08235 0.06028,-0.124027 0.02024,-0.0419 0.03955,-0.08416 0.05799,-0.126663 0.04102,-0.08945 0.08056,-0.179619 0.115785,-0.271528 0.02589,-0.06709 0.05094,-0.134498 0.07459,-0.202406 0.0039,-0.01106 0.0078,-0.02213 0.01166,-0.03319 0.715495,1.123698 1.43099,2.247396 2.146485,3.371094 0.649088,0 1.298177,0 1.947265,0 -1.231771,-1.838542 -2.463541,-3.677083 -3.695312,-5.515625 0.04874,-0.0085 0.09756,-0.01653 0.146244,-0.02533 0.298789,-0.05397 0.59297,-0.135342 0.874969,-0.248226 0.254404,-0.101715 0.499381,-0.22829 0.725227,-0.383756 0.222274,-0.152427 0.426173,-0.331376 0.607363,-0.530844 0.196165,-0.21335 0.3649,-0.452324 0.496535,-0.710673 0.135293,-0.264669 0.231224,-0.548954 0.288514,-0.840481 0.04789,-0.242798 0.06956,-0.490423 0.07013,-0.737781 3.83e-4,-0.328469 -0.03265,-0.658092 -0.113509,-0.976885 -0.04313,-0.169062 -0.100315,-0.334565 -0.170905,-0.494128 -0.07971,-0.179929 -0.178229,-0.351641 -0.295058,-0.510067 -0.127373,-0.173745 -0.276086,-0.331541 -0.440022,-0.471202 -0.064,-0.05437 -0.12993,-0.106472 -0.197444,-0.156406 -0.02744,-0.02114 -0.05641,-0.03824 -0.08454,-0.05841 -0.191715,-0.13092 -0.397116,-0.241409 -0.610624,-0.332379 -0.04773,-0.0184 -0.09517,-0.03923 -0.143359,-0.05712 -0.346549,-0.132555 -0.709167,-0.219876 -1.075478,-0.276409 -0.421018,-0.06474 -0.847461,-0.08916 -1.273172,-0.08835 -1.436257,0 -2.872515,0 -4.308773,0 z m 3.875,1.341797 c 0.101772,1.8e-5 0.203543,-3.9e-5 0.305315,3.2e-5 0.3397,0.0012 0.68031,0.02399 1.014579,0.08651 0.26796,0.05052 0.532611,0.127101 0.77837,0.246599 0.201198,0.09778 0.389022,0.226022 0.544413,0.387648 0.139029,0.143855 0.250527,0.313838 0.328808,0.497864 0.09339,0.21828 0.141139,0.454016 0.156949,0.690288 0.0096,0.14687 0.0081,0.294427 -0.0031,0.441165 -0.01835,0.23599 -0.06546,0.470814 -0.15176,0.691661 -0.08289,0.212987 -0.202927,0.411905 -0.356121,0.581746 -0.07315,0.08115 -0.152054,0.157242 -0.237215,0.225752 -0.172321,0.139215 -0.36741,0.248884 -0.572438,0.332041 -0.04467,0.0185 -0.09027,0.03458 -0.135473,0.05168 -0.0047,0.0018 -0.0094,0.0035 -0.01412,0.0053 -0.0014,-0.03758 -0.0028,-0.07516 -0.0051,-0.112696 -0.02245,-0.417313 -0.06869,-0.833725 -0.147979,-1.244193 -0.08286,-0.428207 -0.202145,-0.850341 -0.370708,-1.252986 -0.02055,-0.0438 -0.03872,-0.08933 -0.05903,-0.133567 -0.106239,-0.236458 -0.231736,-0.464295 -0.375022,-0.680329 -0.05948,-0.08899 -0.121241,-0.176492 -0.186427,-0.261398 -0.113062,-0.14587 -0.235742,-0.284314 -0.367107,-0.413947 -0.04859,-0.04677 -0.09782,-0.09287 -0.146857,-0.139165 z"
       inkscape:path-effect="#path-effect64715"
       inkscape:original-d="m 75.502883,73.89678 v 1.455302 c 1.267023,0.06405 2.209011,0.433039 2.823589,1.10907 0.670376,0.731322 1.00901,1.896859 1.017414,3.494761 v 0.136088 c -0.0098,1.603411 -0.326856,2.809876 -0.952615,3.617895 -0.63112,0.814939 -1.594177,1.224487 -2.888388,1.230341 v 1.445121 h 0.129608 c 1.765122,0 3.119834,-0.54929 4.064111,-1.647862 0.406813,-0.472854 0.725478,-1.031852 0.95817,-1.676561 l 2.116298,3.324423 h 2.036682 L 81.10469,80.858536 c 0.968967,-0.160465 1.740441,-0.555461 2.314417,-1.18498 0.580143,-0.629518 0.870216,-1.404077 0.870216,-2.323669 0,-1.110914 -0.376477,-1.962625 -1.129433,-2.555115 -0.75295,-0.598657 -1.84845,-0.897992 -3.286465,-0.897992 z m 4.005791,1.416421 h 0.188852 c 1.876212,0 2.814327,0.68816 2.814327,2.064457 0,0.734441 -0.237612,1.29916 -0.712836,1.694151 -0.194294,0.163613 -0.425379,0.29298 -0.69062,0.388821 -0.08405,-1.772005 -0.578669,-3.117947 -1.485856,-4.036335 -0.03702,-0.03792 -0.07542,-0.07457 -0.113867,-0.111094 z" />
    <path
       id="path64673"
       style="display:inline;fill:#2045bd;fill-opacity:1;stroke-width:0.473991"
       d="m 83.65625,73.933594 c 0.300801,0.214054 0.566384,0.476546 0.788277,0.771382 0.141717,0.188145 0.265924,0.389373 0.371879,0.599712 0.265625,0 0.53125,0 0.796875,0 0,3.503906 0,7.007812 0,10.511718 0.118835,0.177289 0.238569,0.353973 0.357422,0.53125 0.442708,0 0.885417,0 1.328125,0 0,-3.680989 0,-7.361979 0,-11.042968 0.656901,0 1.313802,0 1.970703,0 0,-0.457031 0,-0.914063 0,-1.371094 -1.871094,0 -3.742187,0 -5.613281,0 z"
       inkscape:path-effect="#path-effect64675"
       inkscape:original-d="m 83.541307,73.89678 c 0.545674,0.3613 0.9671,0.867249 1.253486,1.444196 h 0.782271 v 10.48892 c 0.124063,0.185146 0.248102,0.370311 0.37216,0.555462 H 87.33602 V 75.340976 h 1.970953 V 73.89678 Z" />
  </g>
</svg>
