<?xml version="1.0" encoding="UTF-8" standalone="no"?>
<!-- Created with Inkscape (http://www.inkscape.org/) -->

<svg
   width="250.9789"
   height="227.06093"
   viewBox="0 0 13.80409 12.488578"
   version="1.1"
   id="svg5"
   inkscape:version="1.1.2 (0a00cf5339, 2022-02-04)"
   sodipodi:docname="logo.svg"
   inkscape:label="simple_unmerged"
   inkscape:export-filename="/home/jeertmans/repositories/DiffeRT/DiffeRT/static/logo.png"
   inkscape:export-xdpi="211.397"
   inkscape:export-ydpi="211.397"
   xmlns:inkscape="http://www.inkscape.org/namespaces/inkscape"
   xmlns:sodipodi="http://sodipodi.sourceforge.net/DTD/sodipodi-0.dtd"
   xmlns="http://www.w3.org/2000/svg"
   xmlns:svg="http://www.w3.org/2000/svg">
  <sodipodi:namedview
     id="namedview7"
     pagecolor="#ffffff"
     bordercolor="#666666"
     borderopacity="1.0"
     inkscape:pageshadow="2"
     inkscape:pageopacity="0.0"
     inkscape:pagecheckerboard="0"
     inkscape:document-units="px"
     showgrid="false"
     inkscape:snap-global="false"
     inkscape:zoom="2.5620932"
     inkscape:cx="138.36343"
     inkscape:cy="117.48207"
     inkscape:window-width="1920"
     inkscape:window-height="1043"
     inkscape:window-x="1920"
     inkscape:window-y="0"
     inkscape:window-maximized="1"
     inkscape:current-layer="g59475"
     fit-margin-top="0"
     fit-margin-left="0"
     fit-margin-right="0"
     fit-margin-bottom="0"
     units="px"
     scale-x="1e-05"
     viewbox-width="22.6025" />
  <defs
     id="defs2">
    <inkscape:path-effect
       effect="offset"
       id="path-effect64715"
       is_visible="true"
       lpeversion="1"
       linejoin_type="miter"
       unit="px"
       offset="-2.477089"
       miter_limit="4"
       attempt_force_join="false"
       update_on_knot_move="true" />
    <inkscape:path-effect
       effect="offset"
       id="path-effect64675"
       is_visible="true"
       lpeversion="1"
       linejoin_type="miter"
       unit="px"
       offset="-2.477089"
       miter_limit="4"
       attempt_force_join="false"
       update_on_knot_move="true" />
    <inkscape:path-effect
       effect="offset"
       id="path-effect64669"
       is_visible="true"
       lpeversion="1"
       linejoin_type="miter"
       unit="mm"
       offset="-0.083582132"
       miter_limit="4"
       attempt_force_join="false"
       update_on_knot_move="true" />
  </defs>
  <g
     aria-label="DRT"
     id="g59475"
     style="font-size:10.5833px;line-height:1.25;font-family:Cousine;-inkscape-font-specification:Cousine;display:inline;fill:#000000;stroke-width:0.264583"
     inkscape:label="g59475"
     transform="translate(-75.502883,-73.89678)">
    <path
       id="path59471"
       style="display:inline;fill:#1b3592;fill-opacity:1;stroke-width:0.473991"
       d="m 83.541307,73.89678 c 0.545674,0.3613 0.9671,0.867249 1.253486,1.444196 h 0.782271 v 10.48892 c 0.124063,0.185146 0.248102,0.370311 0.37216,0.555462 H 87.33602 V 75.340976 h 1.970953 V 73.89678 Z" />
    <path
       id="path59473"
       style="display:inline;fill:#4db0ff;fill-opacity:1;stroke-width:0.473991"
       d="m 75.502883,73.89678 v 1.455302 c 1.267023,0.06405 2.209011,0.433039 2.823589,1.10907 0.670376,0.731322 1.00901,1.896859 1.017414,3.494761 v 0.136088 c -0.0098,1.603411 -0.326856,2.809876 -0.952615,3.617895 -0.63112,0.814939 -1.594177,1.224487 -2.888388,1.230341 v 1.445121 h 0.129608 c 1.765122,0 3.119834,-0.54929 4.064111,-1.647862 0.406813,-0.472854 0.725478,-1.031852 0.95817,-1.676561 l 2.116298,3.324423 h 2.036682 L 81.10469,80.858536 c 0.968967,-0.160465 1.740441,-0.555461 2.314417,-1.18498 0.580143,-0.629518 0.870216,-1.404077 0.870216,-2.323669 0,-1.110914 -0.376477,-1.962625 -1.129433,-2.555115 -0.75295,-0.598657 -1.84845,-0.897992 -3.286465,-0.897992 z m 4.005791,1.416421 h 0.188852 c 1.876212,0 2.814327,0.68816 2.814327,2.064457 0,0.734441 -0.237612,1.29916 -0.712836,1.694151 -0.194294,0.163613 -0.425379,0.29298 -0.69062,0.388821 -0.08405,-1.772005 -0.578669,-3.117947 -1.485856,-4.036335 -0.03702,-0.03792 -0.07542,-0.07457 -0.113867,-0.111094 z" />
    <path
       id="path64671"
       style="display:inline;fill:#0086f0;fill-opacity:1;stroke-width:0.473991"
       d="m 75.638672,74.033203 c 0,0.396484 0,0.792969 0,1.189453 0.387751,0.02648 0.774449,0.08362 1.14933,0.187613 0.328958,0.0913 0.648829,0.21972 0.942371,0.394894 0.117007,0.06967 0.229459,0.146945 0.336616,0.230977 0.03484,0.027 0.06951,0.05425 0.102933,0.083 0.02628,0.02125 0.05098,0.0444 0.07597,0.06715 0.07656,0.07074 0.149559,0.14534 0.218484,0.22355 0.128136,0.144721 0.241591,0.302252 0.339857,0.46866 0.130615,0.220141 0.236878,0.454249 0.322427,0.695365 0.107315,0.302408 0.183354,0.615323 0.237217,0.931455 0.04715,0.276428 0.07689,0.555619 0.0954,0.835356 0.01334,0.209339 0.02056,0.419081 0.0212,0.628847 -2.8e-5,0.04313 5.7e-5,0.08626 -4.6e-5,0.129391 -0.0028,0.399172 -0.02499,0.79845 -0.0735,1.194761 -0.03574,0.289377 -0.08571,0.577277 -0.156812,0.86015 -0.05016,0.197965 -0.109314,0.393765 -0.180101,0.585364 -0.05931,0.160815 -0.128121,0.318121 -0.206172,0.470728 -0.02071,0.0423 -0.04202,0.0843 -0.06529,0.125264 -0.09591,0.172001 -0.204311,0.337223 -0.326838,0.491486 -0.03327,0.04207 -0.06718,0.08368 -0.102987,0.123625 -0.04121,0.04483 -0.08314,0.08901 -0.126542,0.131736 -0.07439,0.07479 -0.152835,0.145542 -0.234262,0.212592 -0.231391,0.189998 -0.491431,0.344311 -0.767085,0.460787 -0.323077,0.136886 -0.666262,0.222699 -1.013448,0.270151 -0.195152,0.0267 -0.39185,0.04148 -0.588721,0.04671 0,0.391276 0,0.782552 0,1.173828 0.434878,-4.09e-4 0.870551,-0.03367 1.298184,-0.114372 0.247607,-0.04687 0.492403,-0.109388 0.731113,-0.190316 0.04798,-0.01776 0.09673,-0.03381 0.144585,-0.0521 0.04769,-0.01772 0.09502,-0.03639 0.141914,-0.0561 0.150917,-0.06216 0.298762,-0.131901 0.442016,-0.210155 0.04184,-0.02493 0.08539,-0.04773 0.127244,-0.07295 0.04217,-0.02465 0.08374,-0.05025 0.124492,-0.07704 0.191417,-0.122453 0.372229,-0.261195 0.542331,-0.411774 0.115047,-0.102386 0.223139,-0.212344 0.327446,-0.325576 0.08009,-0.08724 0.155399,-0.178759 0.22758,-0.272612 0.02226,-0.03022 0.04336,-0.06128 0.0661,-0.09116 0.076,-0.102568 0.149668,-0.207003 0.216303,-0.315946 0.184921,-0.299315 0.338062,-0.617815 0.462155,-0.946898 0.01893,-0.05024 0.03712,-0.100751 0.05577,-0.151093 0.02506,-0.06803 0.05013,-0.136058 0.07519,-0.204087 0.741536,1.164714 1.483073,2.329427 2.224609,3.494141 0.56901,0 1.138021,0 1.707031,0 -1.225911,-1.829427 -2.451823,-3.658854 -3.677734,-5.488281 0.08429,-0.01421 0.168604,-0.02828 0.252872,-0.04263 0.290589,-0.05076 0.576781,-0.127685 0.852642,-0.232356 0.294062,-0.112704 0.574655,-0.261781 0.829393,-0.447222 0.187634,-0.136382 0.360837,-0.292478 0.516567,-0.464367 0.190984,-0.208443 0.355226,-0.441824 0.482952,-0.694185 0.130362,-0.256705 0.222495,-0.53233 0.27706,-0.814885 0.04926,-0.25362 0.06875,-0.512502 0.06559,-0.770678 -0.0025,-0.271874 -0.03126,-0.543856 -0.09095,-0.809231 -0.05924,-0.26281 -0.15116,-0.518927 -0.280271,-0.755668 -0.07518,-0.137915 -0.162481,-0.269321 -0.261473,-0.391308 -0.05231,-0.06321 -0.106787,-0.124664 -0.163876,-0.183602 -0.09851,-0.101708 -0.205339,-0.195163 -0.317684,-0.281278 -0.23868,-0.183719 -0.504745,-0.330147 -0.783059,-0.444415 -0.324231,-0.133026 -0.664495,-0.224518 -1.009308,-0.285401 -0.422837,-0.07431 -0.8524,-0.105137 -1.281399,-0.10894 -0.08598,-6.25e-4 -0.171953,-3.33e-4 -0.25793,-4e-4 -1.355818,0 -2.711636,0 -4.067454,0 z m 3.527344,1.142578 c 0.182725,1.2e-5 0.36545,-2.4e-5 0.548175,1.9e-5 0.31271,8.3e-4 0.625932,0.02018 0.934784,0.07055 0.255657,0.04185 0.508658,0.105596 0.748829,0.203642 0.149422,0.06061 0.293288,0.135375 0.427318,0.225122 0.163012,0.109264 0.310146,0.243105 0.42987,0.398856 0.117472,0.152139 0.207966,0.324473 0.270478,0.506081 0.07706,0.223186 0.114123,0.458907 0.121359,0.694518 0.0059,0.200981 -0.0046,0.40279 -0.03696,0.601354 -0.03802,0.233236 -0.107803,0.462164 -0.216082,0.672613 -0.08586,0.168055 -0.197183,0.32277 -0.327378,0.459273 -0.08442,0.08939 -0.175822,0.172449 -0.275441,0.24465 -0.135574,0.09918 -0.280419,0.186063 -0.433543,0.25535 -0.03789,0.0151 -0.07536,0.03297 -0.113639,0.04781 -0.05739,0.02337 -0.115965,0.0436 -0.174215,0.06468 -0.0297,0.01068 -0.0594,0.02136 -0.0891,0.03204 -0.0034,-0.06526 -0.0069,-0.130522 -0.01026,-0.195791 -0.0073,-0.155771 -0.01738,-0.311438 -0.03257,-0.466652 -0.02304,-0.239867 -0.05614,-0.47875 -0.09868,-0.715932 -0.0052,-0.04868 -0.01659,-0.09641 -0.02558,-0.144472 -0.06559,-0.327159 -0.153145,-0.650269 -0.268965,-0.96333 -0.02412,-0.06574 -0.05001,-0.130801 -0.07612,-0.195765 -0.01853,-0.05159 -0.04558,-0.09941 -0.06671,-0.14989 -0.06769,-0.151694 -0.141801,-0.300651 -0.2257,-0.444078 -0.122862,-0.211363 -0.262252,-0.413277 -0.418852,-0.601091 -0.08591,-0.103104 -0.176427,-0.202465 -0.272442,-0.29626 -0.03969,-0.03776 -0.07948,-0.07542 -0.119104,-0.113244 -0.06649,-0.06335 -0.132988,-0.126705 -0.199482,-0.190058 z"
       inkscape:path-effect="#path-effect64715"
       inkscape:original-d="m 75.502883,73.89678 v 1.455302 c 1.267023,0.06405 2.209011,0.433039 2.823589,1.10907 0.670376,0.731322 1.00901,1.896859 1.017414,3.494761 v 0.136088 c -0.0098,1.603411 -0.326856,2.809876 -0.952615,3.617895 -0.63112,0.814939 -1.594177,1.224487 -2.888388,1.230341 v 1.445121 h 0.129608 c 1.765122,0 3.119834,-0.54929 4.064111,-1.647862 0.406813,-0.472854 0.725478,-1.031852 0.95817,-1.676561 l 2.116298,3.324423 h 2.036682 L 81.10469,80.858536 c 0.968967,-0.160465 1.740441,-0.555461 2.314417,-1.18498 0.580143,-0.629518 0.870216,-1.404077 0.870216,-2.323669 0,-1.110914 -0.376477,-1.962625 -1.129433,-2.555115 -0.75295,-0.598657 -1.84845,-0.897992 -3.286465,-0.897992 z m 4.005791,1.416421 h 0.188852 c 1.876212,0 2.814327,0.68816 2.814327,2.064457 0,0.734441 -0.237612,1.29916 -0.712836,1.694151 -0.194294,0.163613 -0.425379,0.29298 -0.69062,0.388821 -0.08405,-1.772005 -0.578669,-3.117947 -1.485856,-4.036335 -0.03702,-0.03792 -0.07542,-0.07457 -0.113867,-0.111094 z" />
    <path
       id="path64673"
       style="display:inline;fill:#2045bd;fill-opacity:1;stroke-width:0.473991"
       d="m 83.945312,74.033203 c 0.284942,0.240368 0.531891,0.524844 0.734602,0.837479 0.07027,0.108295 0.135324,0.219968 0.195086,0.334396 0.279297,0 0.558594,0 0.837891,0 0,3.527995 0,7.055989 0,10.583984 0.102718,0.153093 0.205819,0.305929 0.308593,0.458985 0.392578,0 0.785157,0 1.177735,0 0,-3.68099 0,-7.361979 0,-11.042969 0.656901,0 1.313802,0 1.970703,0 0,-0.390625 0,-0.78125 0,-1.171875 -1.741537,0 -3.483073,0 -5.22461,0 z"
       inkscape:path-effect="#path-effect64675"
       inkscape:original-d="m 83.541307,73.89678 c 0.545674,0.3613 0.9671,0.867249 1.253486,1.444196 h 0.782271 v 10.48892 c 0.124063,0.185146 0.248102,0.370311 0.37216,0.555462 H 87.33602 V 75.340976 h 1.970953 V 73.89678 Z"
       inkscape:export-filename="/home/jeertmans/repositories/DiffeRT/DiffeRT/static/logo_250px.png"
       inkscape:export-xdpi="95.625572"
       inkscape:export-ydpi="95.625572" />
  </g>
</svg>
